<svg id="Layer_1" data-name="Layer 1" xmlns="http://www.w3.org/2000/svg" viewBox="0 0 63 63"><defs><style>.cls-1{fill:#ffffff;}</style></defs><title>poketyper_icon</title><path class="cls-1" d="M41.08,34.48v2a4.58,4.58,0,0,1-4.58,4.58h-10a4.58,4.58,0,0,1-4.58-4.58v-2H0V46A17,17,0,0,0,17,63H46A17,17,0,0,0,63,46V34.48Z"/><path class="cls-1" d="M46,2A15,15,0,0,1,61,17v9.52H43.08v0a6.59,6.59,0,0,0-6.58-6.58h-10a6.59,6.59,0,0,0-6.58,6.58v0H2V17A15,15,0,0,1,17,2H46m0-2H17A17,17,0,0,0,0,17V28.52H21.92v-2a4.58,4.58,0,0,1,4.58-4.58h10a4.58,4.58,0,0,1,4.58,4.58v2H63V17A17,17,0,0,0,46,0Z"/></svg>