<svg id="Layer_1" data-name="Layer 1" xmlns="http://www.w3.org/2000/svg" viewBox="0 0 351 135"><defs><style>.cls-1{fill:#ededed;}.cls-2{font-size:42px;font-family:RussoOne-Regular, Russo One;}.cls-2,.cls-3{fill:#333;}</style></defs><title>poketyper</title><rect class="cls-1" x="36" width="63" height="63" rx="17" ry="17"/><text class="cls-2" transform="translate(52.59 46.98)">P</text><rect class="cls-1" x="180" width="63" height="63" rx="17" ry="17"/><text class="cls-2" transform="translate(197.3 46.98)">K</text><rect class="cls-1" x="252" width="63" height="63" rx="17" ry="17"/><text class="cls-2" transform="translate(270.17 46.98)">É</text><path class="cls-1" d="M149.08,34.48v2a4.58,4.58,0,0,1-4.58,4.58h-10a4.58,4.58,0,0,1-4.58-4.58v-2H108V46a17,17,0,0,0,17,17h29a17,17,0,0,0,17-17V34.48Z"/><path class="cls-3" d="M129.92,28.52v-2a4.58,4.58,0,0,1,4.58-4.58h10a4.58,4.58,0,0,1,4.58,4.58v2H171V17A17,17,0,0,0,154,0H125a17,17,0,0,0-17,17V28.52Z"/><rect class="cls-1" y="72" width="63" height="63" rx="17" ry="17"/><text class="cls-2" transform="translate(18.48 118.98)">T</text><rect class="cls-1" x="72" y="72" width="63" height="63" rx="17" ry="17"/><text class="cls-2" transform="translate(89.43 118.98)">Y</text><rect class="cls-1" x="144" y="72" width="63" height="63" rx="17" ry="17"/><text class="cls-2" transform="translate(160.59 118.98)">P</text><rect class="cls-1" x="216" y="72" width="63" height="63" rx="17" ry="17"/><text class="cls-2" transform="translate(234.17 118.98)">E</text><rect class="cls-1" x="288" y="72" width="63" height="63" rx="17" ry="17"/><text class="cls-2" transform="translate(304.38 118.98)">R</text></svg>