<svg id="Layer_1" data-name="Layer 1" xmlns="http://www.w3.org/2000/svg" viewBox="0 0 351 135"><defs><style>.cls-1{fill:#ffffff;}</style></defs><title>poketyper_tsp</title><path class="cls-1" d="M149.08,34.48v2a4.58,4.58,0,0,1-4.58,4.58h-10a4.58,4.58,0,0,1-4.58-4.58v-2H108V46a17,17,0,0,0,17,17h29a17,17,0,0,0,17-17V34.48Z"/><path class="cls-1" d="M154,2a15,15,0,0,1,15,15v9.52H151.08v0a6.59,6.59,0,0,0-6.58-6.58h-10a6.59,6.59,0,0,0-6.58,6.58v0H110V17A15,15,0,0,1,125,2h29m0-2H125a17,17,0,0,0-17,17V28.52h21.92v-2a4.58,4.58,0,0,1,4.58-4.58h10a4.58,4.58,0,0,1,4.58,4.58v2H171V17A17,17,0,0,0,154,0Z"/><path class="cls-1" d="M71.07,23.46h-8.4V32.7h8.4a2.23,2.23,0,0,0,2.52-2.52V26A2.23,2.23,0,0,0,71.07,23.46Z"/><path class="cls-1" d="M82,0H53A17,17,0,0,0,36,17V46A17,17,0,0,0,53,63H82A17,17,0,0,0,99,46V17A17,17,0,0,0,82,0Zm-.85,30.18c0,2.94-.67,5.08-2,6.41s-3.47,2-6.41,2H62.67V47H55.11V17.58H72.75q4.41,0,6.41,2c1.32,1.33,2,3.46,2,6.4Z"/><path class="cls-1" d="M226,0H197a17,17,0,0,0-17,17V46a17,17,0,0,0,17,17h29a17,17,0,0,0,17-17V17A17,17,0,0,0,226,0Zm-.35,47h-8l-6.51-12h-3.78V47h-7.56V17.58h7.56V29.13h3.78l6.56-11.55h8l-8.24,14.49Z"/><path class="cls-1" d="M298,0H269a17,17,0,0,0-17,17V46a17,17,0,0,0,17,17h29a17,17,0,0,0,17-17V17A17,17,0,0,0,298,0ZM283.9,9.14h7.56l-4.62,7.14h-5.46ZM296,23.46H280.25v5.67h12.38V35H280.25V41.1H296V47H272.69V17.58H296Z"/><path class="cls-1" d="M46,72H17A17,17,0,0,0,0,89v29a17,17,0,0,0,17,17H46a17,17,0,0,0,17-17V89A17,17,0,0,0,46,72ZM44.1,95.46H35.28V119H27.72V95.46H18.9V89.58H44.1Z"/><path class="cls-1" d="M118,72H89A17,17,0,0,0,72,89v29a17,17,0,0,0,17,17h29a17,17,0,0,0,17-17V89A17,17,0,0,0,118,72Zm-10.72,39.21V119H99.72v-7.77L88.59,89.58h8l6.93,14.28,6.93-14.28h8Z"/><path class="cls-1" d="M179.07,95.46h-8.4v9.24h8.4a2.23,2.23,0,0,0,2.52-2.52V98A2.23,2.23,0,0,0,179.07,95.46Z"/><path class="cls-1" d="M190,72H161a17,17,0,0,0-17,17v29a17,17,0,0,0,17,17h29a17,17,0,0,0,17-17V89A17,17,0,0,0,190,72Zm-.85,30.18c0,2.94-.67,5.08-2,6.41s-3.47,2-6.41,2H170.67V119h-7.56V89.58h17.64q4.41,0,6.41,2c1.32,1.33,2,3.46,2,6.4Z"/><path class="cls-1" d="M262,72H233a17,17,0,0,0-17,17v29a17,17,0,0,0,17,17h29a17,17,0,0,0,17-17V89A17,17,0,0,0,262,72Zm-2,23.46H244.25v5.67h12.38V107H244.25v6.09H260V119H236.69V89.58H260Z"/><path class="cls-1" d="M322.86,95.46h-8.4v8.82h8.4a2.23,2.23,0,0,0,2.52-2.52V98A2.23,2.23,0,0,0,322.86,95.46Z"/><path class="cls-1" d="M334,72H305a17,17,0,0,0-17,17v29a17,17,0,0,0,17,17h29a17,17,0,0,0,17-17V89A17,17,0,0,0,334,72Zm-8.83,47-4.83-8.82h-5.88V119H306.9V89.58h17.64q4.41,0,6.41,2t2,6.4v3.78a10.71,10.71,0,0,1-1.15,5.42,5.65,5.65,0,0,1-3.68,2.56l5.25,9.24Z"/></svg>